# xmcd
#
# Track frame offsets:
#	150
#	17587
#	37230
#	56862
#	74290
#	89437
#	105915
#	125047
#	140275
#	155359
#	170380
#	186460
#	203970
#	218965
#	237180
#
# Disc length: 3467 seconds
#
# Revision: 1
# Processed by: cddbd v1.5.2PL0 Copyright (c) Steve Scherf et al.
# Submitted via: audiograbber 1.83.01
#
DISCID=db0d890f
DTITLE=Tia Sillers - Sweet Old Songs
DYEAR=2005
DGENRE=Country
TTITLE0=Hurt Some
TTITLE1=Consider Me Gone
TTITLE2=When I Look At The World
TTITLE3=What's A Thousand Miles
TTITLE4=The Dive Off Shawnee River Bridge
TTITLE5=Firefly
TTITLE6=Sweet Old Songs
TTITLE7=Better By Now
TTITLE8=I'm Your Man
TTITLE9=Lettin' Go Of That Stone
TTITLE10=Just Like That
TTITLE11=If The World Was Mine
TTITLE12=One Long Stretch
TTITLE13=Hollow Of The Human Heart
TTITLE14=I Hope You Dance
EXTD=
EXTT0=
EXTT1=
EXTT2=
EXTT3=
EXTT4=
EXTT5=
EXTT6=
EXTT7=
EXTT8=
EXTT9=
EXTT10=
EXTT11=
EXTT12=
EXTT13=
EXTT14=
PLAYORDER=
